# xmcd
#
# Track frame offsets:
#	150
#	17470
#	33824
#	48348
#	64915
#	79430
#	94067
#	113115
#	130023
#	147940
#	166156
#	186697
#	198815
#
# Disc length: 2987 seconds
#
# Revision: 1
# Processed by: cddbd v1.5.1PL2 Copyright (c) Steve Scherf et al.
# Submitted via: audiograbber 1.83.01
#
DISCID=ab0ba90d
DTITLE=GM Patterson - Real
DYEAR=2006
DGENRE=Country
TTITLE0=There's Gotta Be A Better Way
TTITLE1=Hey Mister
TTITLE2=Real McCoy
TTITLE3=You Just Don't Know
TTITLE4=Blacktop Made Me This Way
TTITLE5=Right Round Here
TTITLE6=Sonday
TTITLE7=Round And Round
TTITLE8=For Who I Am
TTITLE9=You
TTITLE10=Pain By Numbers
TTITLE11=Kisses and Cuddles
TTITLE12=He Writes The Sermons (Song For Dad)
EXTD=
EXTT0=
EXTT1=
EXTT2=
EXTT3=
EXTT4=
EXTT5=
EXTT6=
EXTT7=
EXTT8=
EXTT9=
EXTT10=
EXTT11=
EXTT12=
PLAYORDER=
